<mxfile host="app.diagrams.net" agent="Mozilla/5.0 (Macintosh; Intel Mac OS X 10_15_7) AppleWebKit/537.36 (KHTML, like Gecko) Chrome/132.0.0.0 Safari/537.36" version="26.0.7">
  <diagram name="Page-1" id="61Vkv95G4U7oSuJywjrz">
    <mxGraphModel dx="1183" dy="734" grid="1" gridSize="10" guides="1" tooltips="1" connect="1" arrows="1" fold="1" page="1" pageScale="1" pageWidth="850" pageHeight="1100" math="0" shadow="0">
      <root>
        <mxCell id="0" />
        <mxCell id="1" parent="0" />
        <mxCell id="qJypHuBIZEy-QdpRI4N3-1" value="" style="shape=cube;whiteSpace=wrap;html=1;boundedLbl=1;backgroundOutline=1;darkOpacity=0.05;darkOpacity2=0.1;size=20;fillColor=#fff2cc;strokeColor=#d6b656;" vertex="1" parent="1">
          <mxGeometry x="110" y="120" width="490" height="80" as="geometry" />
        </mxCell>
        <mxCell id="qJypHuBIZEy-QdpRI4N3-2" value="" style="shape=cube;whiteSpace=wrap;html=1;boundedLbl=1;backgroundOutline=1;darkOpacity=0.05;darkOpacity2=0.1;size=110;fillColor=#d5e8d4;strokeColor=#82b366;" vertex="1" parent="1">
          <mxGeometry x="262" y="60" width="200" height="180" as="geometry" />
        </mxCell>
        <mxCell id="qJypHuBIZEy-QdpRI4N3-3" value="" style="rounded=0;whiteSpace=wrap;html=1;" vertex="1" parent="1">
          <mxGeometry x="110" y="360" width="410" height="80" as="geometry" />
        </mxCell>
        <mxCell id="qJypHuBIZEy-QdpRI4N3-4" value="" style="rounded=0;whiteSpace=wrap;html=1;" vertex="1" parent="1">
          <mxGeometry x="240" y="360" width="90" height="210" as="geometry" />
        </mxCell>
        <mxCell id="qJypHuBIZEy-QdpRI4N3-5" value="12.03 mts" style="shape=dimension;whiteSpace=wrap;html=1;align=center;points=[];verticalAlign=bottom;spacingBottom=3;labelBackgroundColor=none;" vertex="1" parent="1">
          <mxGeometry x="130" y="210" width="470" height="40" as="geometry" />
        </mxCell>
        <mxCell id="qJypHuBIZEy-QdpRI4N3-6" value="5,90 mts" style="shape=dimension;whiteSpace=wrap;html=1;align=center;points=[];verticalAlign=bottom;spacingBottom=3;labelBackgroundColor=none;rotation=45;" vertex="1" parent="1">
          <mxGeometry x="334.13" y="105" width="164" height="15" as="geometry" />
        </mxCell>
        <mxCell id="qJypHuBIZEy-QdpRI4N3-7" value="2,34 mts" style="shape=dimension;whiteSpace=wrap;html=1;align=center;points=[];verticalAlign=bottom;spacingBottom=3;labelBackgroundColor=none;" vertex="1" parent="1">
          <mxGeometry x="371.13" y="210" width="90" height="20" as="geometry" />
        </mxCell>
        <mxCell id="qJypHuBIZEy-QdpRI4N3-8" value="12.03 mts" style="shape=dimension;whiteSpace=wrap;html=1;align=center;points=[];verticalAlign=bottom;spacingBottom=3;labelBackgroundColor=none;" vertex="1" parent="1">
          <mxGeometry x="110" y="310" width="410" height="40" as="geometry" />
        </mxCell>
        <mxCell id="qJypHuBIZEy-QdpRI4N3-9" value="2,34 mts" style="shape=dimension;whiteSpace=wrap;html=1;align=center;points=[];verticalAlign=bottom;spacingBottom=3;labelBackgroundColor=none;" vertex="1" parent="1">
          <mxGeometry x="238.54" y="560" width="91.46" height="40" as="geometry" />
        </mxCell>
        <mxCell id="qJypHuBIZEy-QdpRI4N3-10" value="2,34 mts" style="shape=dimension;whiteSpace=wrap;html=1;align=center;points=[];verticalAlign=bottom;spacingBottom=3;labelBackgroundColor=none;rotation=90;" vertex="1" parent="1">
          <mxGeometry x="44.27" y="380" width="75.73" height="40" as="geometry" />
        </mxCell>
        <mxCell id="qJypHuBIZEy-QdpRI4N3-11" value="5,90 mts" style="shape=dimension;whiteSpace=wrap;html=1;align=center;points=[];verticalAlign=bottom;spacingBottom=3;labelBackgroundColor=none;rotation=90;" vertex="1" parent="1">
          <mxGeometry x="170" y="445" width="210" height="40" as="geometry" />
        </mxCell>
        <mxCell id="qJypHuBIZEy-QdpRI4N3-12" value="28,15 mt2" style="text;html=1;align=center;verticalAlign=middle;whiteSpace=wrap;rounded=0;" vertex="1" parent="1">
          <mxGeometry x="130" y="160" width="80" height="30" as="geometry" />
        </mxCell>
        <mxCell id="qJypHuBIZEy-QdpRI4N3-13" value="13,08 mt2" style="text;html=1;align=center;verticalAlign=middle;whiteSpace=wrap;rounded=0;" vertex="1" parent="1">
          <mxGeometry x="322" y="110" width="80" height="30" as="geometry" />
        </mxCell>
        <mxCell id="qJypHuBIZEy-QdpRI4N3-14" value="13,08 mt2" style="text;html=1;align=center;verticalAlign=middle;whiteSpace=wrap;rounded=0;" vertex="1" parent="1">
          <mxGeometry x="250" y="510" width="80" height="30" as="geometry" />
        </mxCell>
        <mxCell id="qJypHuBIZEy-QdpRI4N3-15" value="28,15 mt2" style="text;html=1;align=center;verticalAlign=middle;whiteSpace=wrap;rounded=0;" vertex="1" parent="1">
          <mxGeometry x="262" y="300" width="80" height="30" as="geometry" />
        </mxCell>
        <mxCell id="qJypHuBIZEy-QdpRI4N3-16" value="" style="shape=cube;whiteSpace=wrap;html=1;boundedLbl=1;backgroundOutline=1;darkOpacity=0.05;darkOpacity2=0.1;size=20;fillColor=#dae8fc;strokeColor=#6c8ebf;" vertex="1" parent="1">
          <mxGeometry x="111" y="60" width="170" height="80" as="geometry" />
        </mxCell>
        <mxCell id="qJypHuBIZEy-QdpRI4N3-17" value="4,66 mts" style="shape=dimension;whiteSpace=wrap;html=1;align=center;points=[];verticalAlign=bottom;spacingBottom=3;labelBackgroundColor=none;" vertex="1" parent="1">
          <mxGeometry x="110" y="445" width="130" height="40" as="geometry" />
        </mxCell>
        <mxCell id="qJypHuBIZEy-QdpRI4N3-18" value="2,34 mts" style="shape=dimension;whiteSpace=wrap;html=1;align=center;points=[];verticalAlign=bottom;spacingBottom=3;labelBackgroundColor=none;rotation=45;" vertex="1" parent="1">
          <mxGeometry x="80" y="180" width="50" height="20" as="geometry" />
        </mxCell>
        <mxCell id="qJypHuBIZEy-QdpRI4N3-19" value="5,03 mts" style="shape=dimension;whiteSpace=wrap;html=1;align=center;points=[];verticalAlign=bottom;spacingBottom=3;labelBackgroundColor=none;" vertex="1" parent="1">
          <mxGeometry x="462" y="200" width="138" height="20" as="geometry" />
        </mxCell>
        <mxCell id="qJypHuBIZEy-QdpRI4N3-20" value="2,34 mts" style="shape=dimension;whiteSpace=wrap;html=1;align=center;points=[];verticalAlign=bottom;spacingBottom=3;labelBackgroundColor=none;rotation=45;" vertex="1" parent="1">
          <mxGeometry x="80" y="120" width="50" height="20" as="geometry" />
        </mxCell>
        <mxCell id="qJypHuBIZEy-QdpRI4N3-21" value="10,90 mt2" style="text;html=1;align=center;verticalAlign=middle;whiteSpace=wrap;rounded=0;" vertex="1" parent="1">
          <mxGeometry x="150" y="55" width="80" height="30" as="geometry" />
        </mxCell>
        <mxCell id="qJypHuBIZEy-QdpRI4N3-22" value="4,66 mts" style="shape=dimension;whiteSpace=wrap;html=1;align=center;points=[];verticalAlign=bottom;spacingBottom=3;labelBackgroundColor=none;" vertex="1" parent="1">
          <mxGeometry x="131" y="115" width="150" height="20" as="geometry" />
        </mxCell>
        <mxCell id="qJypHuBIZEy-QdpRI4N3-25" value="Terraza" style="shape=umlActor;verticalLabelPosition=bottom;verticalAlign=top;html=1;outlineConnect=0;" vertex="1" parent="1">
          <mxGeometry x="520" y="63" width="26" height="50" as="geometry" />
        </mxCell>
        <mxCell id="qJypHuBIZEy-QdpRI4N3-26" value="10,90 mt2" style="text;html=1;align=center;verticalAlign=middle;whiteSpace=wrap;rounded=0;" vertex="1" parent="1">
          <mxGeometry x="135" y="385" width="80" height="30" as="geometry" />
        </mxCell>
        <mxCell id="qJypHuBIZEy-QdpRI4N3-27" value="Terraza" style="shape=umlActor;verticalLabelPosition=bottom;verticalAlign=top;html=1;outlineConnect=0;" vertex="1" parent="1">
          <mxGeometry x="461.13" y="370" width="26" height="50" as="geometry" />
        </mxCell>
        <mxCell id="qJypHuBIZEy-QdpRI4N3-28" value="11,77 mt2" style="text;html=1;align=center;verticalAlign=middle;whiteSpace=wrap;rounded=0;" vertex="1" parent="1">
          <mxGeometry x="370" y="385" width="80" height="30" as="geometry" />
        </mxCell>
        <mxCell id="qJypHuBIZEy-QdpRI4N3-29" value="5.03 mts" style="shape=dimension;whiteSpace=wrap;html=1;align=center;points=[];verticalAlign=bottom;spacingBottom=3;labelBackgroundColor=none;" vertex="1" parent="1">
          <mxGeometry x="334.13" y="445" width="185.87" height="40" as="geometry" />
        </mxCell>
        <mxCell id="qJypHuBIZEy-QdpRI4N3-31" value="Apto Planta Baja = 28,15 mt2&lt;div&gt;Apto Planta Alta = 23,98 mt2&lt;/div&gt;&lt;div&gt;Terraza Planta Alta = 11,77 mt2&lt;/div&gt;" style="text;html=1;align=center;verticalAlign=middle;whiteSpace=wrap;rounded=0;" vertex="1" parent="1">
          <mxGeometry x="610" y="140" width="180" height="30" as="geometry" />
        </mxCell>
        <mxCell id="qJypHuBIZEy-QdpRI4N3-32" value="Contenedor 40 pies" style="rounded=0;whiteSpace=wrap;html=1;fillColor=#fff2cc;strokeColor=#d6b656;" vertex="1" parent="1">
          <mxGeometry x="610" y="40" width="120" height="20" as="geometry" />
        </mxCell>
        <mxCell id="qJypHuBIZEy-QdpRI4N3-33" value="Contenedor 20 pies" style="rounded=0;whiteSpace=wrap;html=1;fillColor=#d5e8d4;strokeColor=#82b366;" vertex="1" parent="1">
          <mxGeometry x="610" y="60" width="120" height="20" as="geometry" />
        </mxCell>
        <mxCell id="qJypHuBIZEy-QdpRI4N3-34" value="Estructura hecha" style="rounded=0;whiteSpace=wrap;html=1;fillColor=#dae8fc;strokeColor=#6c8ebf;" vertex="1" parent="1">
          <mxGeometry x="610" y="80" width="120" height="20" as="geometry" />
        </mxCell>
      </root>
    </mxGraphModel>
  </diagram>
</mxfile>
